<?xml version="1.0" encoding="UTF-8"?>
<svg width="16px" height="16px" viewBox="0 0 16 16" version="1.1" xmlns="http://www.w3.org/2000/svg" xmlns:xlink="http://www.w3.org/1999/xlink">
    <!-- Generator: sketchtool 61 (101010) - https://sketch.com -->
    <title>8971CC03-FC11-4E12-867C-E4AE33096087</title>
    <desc>Created with sketchtool.</desc>
    <g id="Asset-Artboard-Page" stroke="none" stroke-width="1" fill="none" fill-rule="evenodd">
        <g id="Arrow-Filled/16x16/Arrow" transform="translate(8.000000, 8.000000) scale(-1, 1) translate(-8.000000, -8.000000) " fill="#000000">
            <path d="M11.4493164,1.43998501 C11.4918166,1.47885237 11.5325612,1.51959695 11.5714286,1.56209717 C12.3802035,2.44646673 12.3802035,3.80192194 11.5714286,4.6862915 L8.54,7.999 L11.5714286,11.3137085 C12.3802035,12.1980781 12.3802035,13.5535333 11.5714286,14.4379028 C10.849891,15.226881 9.62537609,15.2815525 8.83639787,14.560015 C8.79389766,14.5211476 8.75315307,14.480403 8.71428571,14.4379028 L4.42857143,9.75161133 C3.97841794,9.25938289 3.77881395,8.62121733 3.82975946,7.99956802 C3.77902876,7.37809614 3.97866008,6.74035233 4.42857143,6.24838867 L8.71428571,1.56209717 C9.43582325,0.773118953 10.6603382,0.718447478 11.4493164,1.43998501 Z" id="Filled/16x16/Arrow"></path>
        </g>
    </g>
</svg>