<?xml version="1.0" encoding="UTF-8"?>
<svg width="32px" height="32px" viewBox="0 0 32 32" version="1.1" xmlns="http://www.w3.org/2000/svg" xmlns:xlink="http://www.w3.org/1999/xlink">
    <!-- Generator: sketchtool 61 (101010) - https://sketch.com -->
    <title>226BC1CB-54CE-4CDD-8883-BA7DBADF6F9B</title>
    <desc>Created with sketchtool.</desc>
    <g id="Page-1" stroke="none" stroke-width="1" fill="none" fill-rule="evenodd">
        <g id="Home" transform="translate(-1413.000000, -29.000000)" fill="#484848" fill-rule="nonzero">
            <g id="facebook" transform="translate(1413.000000, 29.000000)">
                <path d="M16,0 C24.8352051,0 32,7.15082848 32,15.9688109 C32,23.2577972 27.1042481,29.4071638 20.4165039,31.3206628 L20.4165039,31.3206628 L20.4165039,19.502924 L23.8666992,19.502924 L24.3837891,15.5046296 L20.4165039,15.5046296 L20.4165039,12.9580897 C20.4165039,11.8033626 20.737793,11.0163256 22.3969726,11.0163256 L22.3969726,11.0163256 L24.5,11.0163256 L24.5,7.45004875 C24.1340332,7.40155945 22.8786621,7.29288496 21.4182129,7.29288496 C18.3684082,7.29288496 16.28125,9.15009747 16.28125,12.5623782 L16.28125,12.5623782 L16.28125,15.5046296 L12.84375,15.5046296 L12.84375,19.502924 L16.28125,19.502924 L16.28125,31.9339668 C16.1875,31.9356725 16.0939941,31.9376218 16,31.9376218 C7.16479494,31.9376218 0,24.7867934 0,15.9688109 C0,7.15082848 7.16479494,0 16,0 Z" id="Combined-Shape"></path>
            </g>
        </g>
    </g>
</svg>